<svg width="39" height="37" viewBox="0 0 39 37" fill="none" xmlns="http://www.w3.org/2000/svg">
<path d="M14.5 36C15.3284 36 16 35.3284 16 34.5C16 33.6716 15.3284 33 14.5 33C13.6716 33 13 33.6716 13 34.5C13 35.3284 13.6716 36 14.5 36Z" stroke="white" stroke-width="2" stroke-linecap="round" stroke-linejoin="round"/>
<path d="M33 36C34.1046 36 35 35.3284 35 34.5C35 33.6716 34.1046 33 33 33C31.8954 33 31 33.6716 31 34.5C31 35.3284 31.8954 36 33 36Z" stroke="white" stroke-width="2" stroke-linecap="round" stroke-linejoin="round"/>
<path d="M1 1H7.72727L12.2345 23.3161C12.3883 24.0834 12.8096 24.7727 13.4245 25.2632C14.0394 25.7538 14.8089 26.0144 15.5982 25.9994H31.9455C32.7347 26.0144 33.5042 25.7538 34.1191 25.2632C34.7341 24.7727 35.1553 24.0834 35.3091 23.3161L38 9.33313H9.40909" stroke="white" stroke-width="2" stroke-linecap="round" stroke-linejoin="round"/>
</svg>
