<svg width="86" height="78" viewBox="0 0 86 78" fill="none" xmlns="http://www.w3.org/2000/svg">
<path d="M58.5437 8.57465H58.5341C57.6066 8.57465 56.8591 9.32664 56.8591 10.2543C56.8591 11.182 57.616 11.934 58.5435 11.934C59.471 11.934 60.2232 11.182 60.2232 10.2543C60.2232 9.32664 59.4712 8.57465 58.5437 8.57465Z" fill="#4C0DFF"/>
<path d="M66.6665 8.57465H66.6618C65.7342 8.57465 64.9846 9.32664 64.9846 10.2543C64.9846 11.182 65.7389 11.934 66.6666 11.934C67.5943 11.934 68.3463 11.182 68.3463 10.2543C68.3463 9.32664 67.594 8.57465 66.6665 8.57465Z" fill="#4C0DFF"/>
<path d="M50.4209 8.57465H50.4113C49.4838 8.57465 48.7363 9.32664 48.7363 10.2543C48.7363 11.182 49.4932 11.934 50.4207 11.934C51.3482 11.934 52.1004 11.182 52.1004 10.2543C52.1004 9.32664 51.3486 8.57465 50.4209 8.57465Z" fill="#4C0DFF"/>
<path d="M33.3707 8.57465H10.7547C9.82718 8.57465 9.07501 9.32664 9.07501 10.2543C9.07501 11.182 9.82718 11.934 10.7547 11.934H33.3707C34.2982 11.934 35.0504 11.182 35.0504 10.2543C35.0504 9.32664 34.2982 8.57465 33.3707 8.57465Z" fill="#4C0DFF"/>
<path d="M85.983 70.4678C85.8599 68.7491 85.0783 67.185 83.7828 66.0643L77.421 60.5556V5.65015C77.421 2.89143 75.1766 0.647034 72.4179 0.647034H5.00312C2.2444 0.647034 0 2.89143 0 5.65015V61.3919C0 64.1506 2.2444 66.395 5.00312 66.395H64.5146L75.3614 75.7894C76.5371 76.8064 78.0129 77.353 79.5599 77.353C79.7168 77.353 79.8742 77.3473 80.0322 77.336C81.7507 77.2132 83.3143 76.4322 84.433 75.1388C85.5555 73.8448 86.1061 72.1859 85.983 70.4678ZM3.35937 5.65015C3.35937 4.74379 4.09676 4.00641 5.00312 4.00641H72.418C73.3244 4.00641 74.0618 4.74379 74.0618 5.65015V16.4977H3.35937V5.65015ZM5.00312 63.0357C4.09676 63.0357 3.35937 62.2983 3.35937 61.3919V19.8569H74.0618V57.6467L61.8471 47.0699C61.8456 46.8571 61.8397 46.6438 61.8243 46.4296C61.7918 45.9793 61.7275 45.5364 61.6361 45.1021H67.6806C68.6082 45.1021 69.3603 44.3502 69.3603 43.4225V25.8623C69.3603 24.9346 68.6082 24.1826 67.6806 24.1826H46.2453C45.3178 24.1826 44.5656 24.9346 44.5656 25.8623C44.5656 26.79 45.3178 27.542 46.2453 27.542H66.001V41.7428H60.2289C59.7433 41.0121 59.1576 40.3416 58.4758 39.752C58.461 39.7392 58.4461 39.7268 58.431 39.7146C55.9818 37.7418 54.097 37.7404 52.4341 37.7392C50.4733 37.7379 48.4457 37.7364 44.1417 34.1682C43.4381 33.5847 42.3972 33.6714 41.7992 34.3624C40.0617 36.371 39.4478 39.0014 39.6032 41.7428H11.4202V27.542H31.1616C32.0891 27.542 32.8412 26.79 32.8412 25.8623C32.8412 24.9346 32.0891 24.1826 31.1616 24.1826H9.74051C8.81298 24.1826 8.06082 24.9346 8.06082 25.8623V43.4225C8.06082 44.3502 8.81298 45.1021 9.74051 45.1021H40.1499C41.1349 48.8492 43.284 52.4172 45.7029 54.5102C47.4911 56.0586 49.7298 56.8902 52.0725 56.8902C52.5274 56.891 52.9799 56.8591 53.43 56.7946L60.6359 63.0357H5.00312ZM56.9254 51.3182C55.8078 52.6109 54.2531 53.3906 52.548 53.5137C50.844 53.6363 49.1932 53.0886 47.9017 51.9704C44.5727 49.0894 41.7097 42.1094 43.4945 37.9272C47.8019 41.0953 50.3466 41.0973 52.4319 41.0988C53.8988 41.0998 54.787 41.1005 56.3004 42.3122C57.5802 43.4285 58.3518 44.9752 58.4734 46.6705C58.5959 48.375 58.0468 50.025 56.9254 51.3182ZM57.0843 55.5155C57.9682 54.9874 58.7724 54.3181 59.465 53.5172C60.16 52.7157 60.7083 51.8224 61.1048 50.8709L74.3378 62.3295L70.3147 66.9744L57.0843 55.5155ZM81.8938 72.9393C81.3614 73.5549 80.6151 73.9264 79.7925 73.9852C78.9688 74.0435 78.1762 73.7825 77.5601 73.2493L72.8541 69.1734L76.8773 64.5282L81.5844 68.6043C82.2012 69.1378 82.5734 69.8848 82.6322 70.7076C82.6912 71.53 82.4295 72.3218 81.8938 72.9393Z" fill="#4C0DFF"/>
<path d="M21.52 51.9061H36.1228C37.0504 51.9061 37.8025 51.1541 37.8025 50.2264C37.8025 49.2987 37.0504 48.5467 36.1228 48.5467H21.52C20.5924 48.5467 19.8403 49.2987 19.8403 50.2264C19.8403 51.1541 20.5923 51.9061 21.52 51.9061Z" fill="#4C0DFF"/>
<path d="M9.74054 51.9061H14.7161C15.6436 51.9061 16.3958 51.1541 16.3958 50.2264C16.3958 49.2987 15.6436 48.5467 14.7161 48.5467H9.74054C8.81302 48.5467 8.06085 49.2987 8.06085 50.2264C8.06085 51.1541 8.81302 51.9061 9.74054 51.9061Z" fill="#4C0DFF"/>
<path d="M23.5148 55.3508H9.74054C8.81302 55.3508 8.06085 56.1028 8.06085 57.0305C8.06085 57.9581 8.81302 58.7101 9.74054 58.7101H23.515C24.4425 58.7101 25.1947 57.9581 25.1947 57.0305C25.1947 56.1028 24.4425 55.3508 23.5148 55.3508Z" fill="#4C0DFF"/>
<path d="M39.5271 55.3508H32.0233C31.0957 55.3508 30.3436 56.1028 30.3436 57.0305C30.3436 57.9581 31.0957 58.7101 32.0233 58.7101H39.5271C40.4546 58.7101 41.2068 57.9581 41.2068 57.0305C41.2068 56.1028 40.4548 55.3508 39.5271 55.3508Z" fill="#4C0DFF"/>
<path d="M38.7033 27.542H38.7129C39.6404 27.542 40.3879 26.79 40.3879 25.8623C40.3879 24.9346 39.631 24.1826 38.7035 24.1826C37.776 24.1826 37.0238 24.9346 37.0238 25.8623C37.0236 26.79 37.7756 27.542 38.7033 27.542Z" fill="#4C0DFF"/>
</svg>
