<svg width="81" height="78" viewBox="0 0 81 78" fill="none" xmlns="http://www.w3.org/2000/svg">
<path fill-rule="evenodd" clip-rule="evenodd" d="M77.1429 72.1364C77.1429 73.2186 76.2692 74.1 75.2066 74.1H5.79343C4.72114 74.1 3.85714 73.2264 3.85714 72.1364V29.25V21.45V19.5H9.64286H21.2143H27H32.7857H57.0086H77.1429V29.25V72.1364ZM5.79343 3.9H9.64286H21.2143H27H32.7857H75.2066C76.2731 3.9 77.1332 4.76775 77.1409 5.85C77.1409 5.8539 77.1429 5.8578 77.1429 5.86365V15.6H32.7857H27H21.2143H9.64286H3.85714V5.86365C3.85714 5.8578 3.85907 5.8539 3.85907 5.85C3.86679 4.77555 4.73464 3.9 5.79343 3.9ZM75.2066 0C78.4022 0 80.9904 2.61105 80.9981 5.85C80.9981 5.8539 81 5.85975 81 5.86365V72.1364C81 75.3753 78.3964 78 75.2066 78H5.79343C2.59393 78 0 75.3811 0 72.1364L0.000964286 5.85682C0.00771429 3.30915 1.62386 1.16805 3.85714 0.36075C4.46464 0.1404 5.11071 0 5.79343 0H75.2066ZM44.3568 27.6767C44.052 27.8893 43.784 28.1642 43.6393 28.5386L43.3655 29.2504L36.8565 46.0633L30.9898 61.2265C30.6003 62.2288 31.0901 63.3598 32.0833 63.7517C33.0765 64.1437 34.1951 63.6484 34.5828 62.648L36.8565 56.7668L44.3568 37.3858L47.2303 29.9602C47.321 29.7262 47.3538 29.4863 47.3538 29.2504C47.3538 28.4704 46.9005 27.7333 46.1388 27.433C45.5178 27.1873 44.8678 27.3199 44.3568 27.6767ZM23.9228 33.721L21.2151 36.4588L14.386 43.3618C13.6319 44.1242 13.6319 45.3586 14.386 46.1191L21.2151 53.024L23.9228 55.7638C24.6768 56.5243 25.8957 56.5243 26.6498 55.7638C27.4038 55.0013 27.4038 53.765 26.6498 53.0065L21.2151 47.5094L18.4765 44.7404L21.2151 41.9734L26.6498 36.4783C27.4038 35.7158 27.4038 34.4834 26.6498 33.721C25.8957 32.9585 24.6768 32.9585 23.9228 33.721ZM54.5651 33.721C53.811 34.4834 53.811 35.7158 54.5651 36.4783L57.0086 38.9489L62.7364 44.7404L57.0086 50.5358L54.5651 53.0065C53.811 53.765 53.811 55.0013 54.5651 55.7638C55.2343 56.4385 56.2564 56.4814 57.0086 55.9529C57.1011 55.8886 57.2072 55.8496 57.2921 55.7638L66.8289 46.1191C67.5829 45.3586 67.5829 44.1242 66.8289 43.3618L57.2921 33.721C57.2072 33.6371 57.1011 33.5962 57.0086 33.5299C56.2564 33.0053 55.2343 33.0424 54.5651 33.721ZM9.64286 7.79961C8.57636 7.79961 7.71429 8.67126 7.71429 9.74961C7.71429 10.828 8.57636 11.6996 9.64286 11.6996C10.7094 11.6996 11.5714 10.828 11.5714 9.74961C11.5714 8.67126 10.7094 7.79961 9.64286 7.79961ZM15.4286 7.79961C14.3621 7.79961 13.5 8.67126 13.5 9.74961C13.5 10.828 14.3621 11.6996 15.4286 11.6996C16.4951 11.6996 17.3571 10.828 17.3571 9.74961C17.3571 8.67126 16.4951 7.79961 15.4286 7.79961ZM21.2143 7.79961C20.1478 7.79961 19.2857 8.67126 19.2857 9.74961C19.2857 10.828 20.1478 11.6996 21.2143 11.6996C22.2808 11.6996 23.1429 10.828 23.1429 9.74961C23.1429 8.67126 22.2808 7.79961 21.2143 7.79961Z" fill="#4C0DFF"/>
</svg>
