<svg width="76" height="76" viewBox="0 0 76 76" fill="none" xmlns="http://www.w3.org/2000/svg">
<path d="M73.4657 35.1582L69.0748 39.5493C68.7965 39.8277 68.6401 40.2052 68.6401 40.5989C68.6401 43.7432 67.4156 46.6993 65.1922 48.9226L41.7384 72.3765C40.868 73.2466 39.4519 73.2468 38.5816 72.3765C38.1601 71.9549 37.9278 71.3944 37.9278 70.798C37.9278 70.2791 38.1041 69.7871 38.4277 69.3905L52.0092 55.809C52.5889 55.2294 52.5889 54.2895 52.0092 53.7097C52.0079 53.7082 52.0062 53.7071 52.0048 53.7057C52.0034 53.7042 52.0022 53.7027 52.0008 53.7012C51.421 53.1219 50.4812 53.1219 49.9014 53.7012L33.5247 70.095C33.1031 70.5167 32.5425 70.7489 31.9464 70.7489C31.3503 70.7489 30.7896 70.5166 30.368 70.095C29.5527 69.2796 29.5013 67.9856 30.2135 67.1096L46.7618 50.5613C47.3415 49.9817 47.3415 49.0418 46.7618 48.462C46.1822 47.8825 45.2423 47.8825 44.6625 48.462L25.3985 67.7259C24.977 68.1477 24.4163 68.3798 23.8202 68.3798C23.2239 68.3798 22.6634 68.1475 22.2417 67.7259C21.8202 67.3044 21.588 66.7439 21.588 66.1476C21.588 65.5514 21.8202 64.9907 22.2417 64.5691L41.5191 45.3089C42.0987 44.7293 42.0987 43.7894 41.5191 43.2096C40.9393 42.6302 39.9995 42.6302 39.4199 43.2096L22.2122 60.4003C21.3363 61.1121 20.0423 61.0609 19.2271 60.2456C18.8054 59.8241 18.5733 59.2634 18.5733 58.6672C18.5733 58.0709 18.8056 57.5104 19.2271 57.0888L24.8593 51.4566C25.4389 50.8769 25.4389 49.937 24.8591 49.3572C24.2795 48.7777 23.3396 48.7777 22.7599 49.3572L19.8788 52.2385L14.1559 46.5155C10.5531 42.9127 7.96837 38.4027 6.68112 33.4732C6.61448 33.2178 6.48103 32.9851 6.2946 32.7985L2.5341 29.038C1.95431 28.4587 1.01456 28.4585 0.434911 29.038C-0.144734 29.6177 -0.144882 30.5576 0.434911 31.1374L3.91412 34.6166C5.36761 39.9025 8.17737 44.7353 12.0566 48.6149L17.7796 54.3379L17.1279 54.9895C16.1456 55.9717 15.6045 57.2778 15.6045 58.667C15.6045 60.0562 16.1456 61.3623 17.1279 62.3447C17.7463 62.9631 18.4833 63.3918 19.2662 63.633C18.8445 64.394 18.6191 65.2531 18.6191 66.1475C18.6191 67.5367 19.16 68.8428 20.1424 69.825C21.1248 70.8073 22.4308 71.3484 23.8201 71.3484C25.0024 71.3484 26.1236 70.9553 27.0373 70.233C27.2866 70.9498 27.6969 71.6224 28.2686 72.1942C29.2509 73.1765 30.557 73.7176 31.9462 73.7176C33.1676 73.7176 34.3245 73.2992 35.2537 72.5305C35.5086 73.254 35.9239 73.9172 36.4823 74.4757C37.4963 75.4895 38.828 75.9964 40.1598 75.9964C41.4917 75.9964 42.8235 75.4895 43.8375 74.4757L45.7366 72.5766L47.0646 73.9046C48.0786 74.9184 49.4104 75.4254 50.7422 75.4254C52.0739 75.4254 53.4059 74.9184 54.4198 73.9046C55.2469 73.0775 55.7595 72.0207 55.9014 70.8781C56.1931 70.9279 56.4878 70.9543 56.7831 70.9543C58.115 70.9543 59.4468 70.4474 60.4608 69.4336C61.4431 68.4512 61.9842 67.1451 61.9842 65.7559C61.9842 65.7362 61.983 65.7167 61.9827 65.697C62.0015 65.6971 62.0202 65.6983 62.0391 65.6983C63.371 65.6983 64.7028 65.1914 65.7167 64.1776C66.6991 63.1952 67.24 61.8891 67.24 60.4999C67.24 60.248 67.2217 59.9991 67.1867 59.754C68.3669 59.6301 69.4608 59.1111 70.3114 58.2603C71.2938 57.2781 71.8349 55.972 71.8349 54.5828C71.8349 53.1936 71.2938 51.8875 70.3114 50.9051L68.7413 49.335C70.4787 46.9839 71.4724 44.1839 71.5954 41.2269L75.5648 37.2577C76.1444 36.6781 76.1444 35.7382 75.5646 35.1585C74.9853 34.5787 74.0454 34.5787 73.4657 35.1582ZM52.3209 71.8053C51.4505 72.6753 50.0344 72.6756 49.1641 71.8053L47.8502 70.4913L51.007 67.3345L51.7588 68.0862L52.3212 68.6486C52.7426 69.07 52.9748 69.6305 52.9748 70.2267C52.9746 70.8232 52.7423 71.3839 52.3209 71.8053ZM59.0156 65.7559C59.0156 66.3522 58.7834 66.9128 58.3617 67.3344C57.4914 68.2045 56.0753 68.2048 55.2049 67.3344L54.4206 66.55C54.4204 66.5497 54.4203 66.5496 54.42 66.5494L53.106 65.2355L56.2627 62.0787L58.3616 64.1776C58.7834 64.5991 59.0156 65.1596 59.0156 65.7559ZM63.6177 62.0782C62.7473 62.9484 61.331 62.9485 60.4609 62.0782L58.362 59.9793L61.5188 56.8225L63.6177 58.9214C64.0393 59.343 64.2714 59.9035 64.2714 60.4998C64.2716 61.0962 64.0393 61.6567 63.6177 62.0782ZM68.2126 56.161C67.791 56.5827 67.2304 56.8148 66.6342 56.8148C66.0381 56.8148 65.4775 56.5827 65.0558 56.161L63.6181 54.7233L66.7749 51.5665L68.2126 53.0042C68.6341 53.4257 68.8664 53.9862 68.8664 54.5826C68.8663 55.1789 68.6341 55.7394 68.2126 56.161Z" fill="#4C0DFF"/>
<path d="M17.6133 19.7124C17.8916 19.9907 18.2692 20.1472 18.6629 20.1472H26.324C31.8625 20.1472 37.2803 22.07 41.5793 25.5617L53.641 35.3575C50.6917 37.4172 46.7312 37.6987 43.4998 35.9485L35.2925 31.5043C34.9445 31.3158 34.5351 31.2741 34.1558 31.389C28.9721 32.9572 23.4877 32.9716 18.2955 31.4297L18.1499 31.3866C17.3638 31.1536 16.5379 31.6017 16.3048 32.3877C16.0718 33.1737 16.5201 33.9997 17.306 34.2328L17.4512 34.2758C23.001 35.9236 28.8525 35.9663 34.4154 34.4054L36.5543 35.5636L32.203 39.9149C31.6233 40.4945 31.6233 41.4345 32.2031 42.0142C32.493 42.304 32.8729 42.449 33.2527 42.449C33.6326 42.449 34.0126 42.304 34.3023 42.0142L39.2779 37.0385L42.0863 38.5592C43.9489 39.5679 45.989 40.084 48.0719 40.084C48.683 40.084 49.2981 40.0394 49.9133 39.9501C52.6245 39.5554 55.0814 38.3228 57.0188 36.3854C57.3159 36.0881 57.4731 35.6788 57.4515 35.259C57.4296 34.8394 57.2312 34.4484 56.9048 34.1835L44.9249 24.4542C48.4969 22.2425 52.5776 21.0609 56.8013 21.0323C57.1914 21.0296 57.565 20.8735 57.8408 20.5975L75.5653 2.87329C76.145 2.29364 76.145 1.35374 75.5653 0.773949C74.9855 0.1946 74.0458 0.1946 73.466 0.773949L56.1651 18.075C51.2608 18.2237 46.5467 19.7496 42.4769 22.5031C37.8189 19.0616 32.1307 17.1784 26.3242 17.1784H19.2779L2.53407 0.434622C1.95443 -0.144874 1.01453 -0.144874 0.434734 0.434622C-0.144911 1.01427 -0.144911 1.95417 0.434734 2.53396L17.6133 19.7124Z" fill="#4C0DFF"/>
<path d="M27.4788 44.6373C27.2028 44.9133 27.0454 45.2963 27.0454 45.6867C27.0454 46.0786 27.2028 46.4601 27.4788 46.736C27.7564 47.0121 28.1394 47.1711 28.5298 47.1711C28.9202 47.1711 29.3017 47.0123 29.5792 46.736C29.8553 46.4601 30.0142 46.0784 30.0142 45.6867C30.0142 45.2963 29.8553 44.9133 29.5792 44.6373C29.3031 44.3612 28.9202 44.2023 28.5298 44.2023C28.1381 44.2023 27.7564 44.3612 27.4788 44.6373Z" fill="#4C0DFF"/>
</svg>
