<svg width="357" height="88" viewBox="0 0 357 88" fill="none" xmlns="http://www.w3.org/2000/svg">
<path d="M179.649 54.232V61H156.196V27.63H179.226V34.398H163.904V40.884H177.064V47.135H163.904V54.232H179.649ZM189.173 27.63L196.458 39.145L203.743 27.63H212.062L200.5 44.55L211.686 61H203.367L196.458 49.955L189.549 61H181.183L192.369 44.55L180.807 27.63H189.173ZM228.048 61.282C225.573 61.282 223.317 60.7963 221.28 59.825C219.244 58.8537 217.505 57.5847 216.063 56.018C214.622 54.42 213.494 52.6027 212.679 50.566C211.896 48.5293 211.504 46.43 211.504 44.268C211.504 42.0747 211.912 39.9597 212.726 37.923C213.572 35.8863 214.732 34.1003 216.204 32.565C217.708 30.9983 219.479 29.7607 221.515 28.852C223.552 27.912 225.777 27.442 228.189 27.442C230.665 27.442 232.921 27.9277 234.957 28.899C236.994 29.8703 238.733 31.155 240.174 32.753C241.616 34.351 242.728 36.1683 243.511 38.205C244.295 40.2417 244.686 42.3097 244.686 44.409C244.686 46.6023 244.263 48.7173 243.417 50.754C242.603 52.7907 241.459 54.5923 239.986 56.159C238.514 57.6943 236.759 58.932 234.722 59.872C232.686 60.812 230.461 61.282 228.048 61.282ZM219.353 44.362C219.353 45.6467 219.541 46.9 219.917 48.122C220.293 49.3127 220.842 50.378 221.562 51.318C222.314 52.258 223.239 53.01 224.335 53.574C225.432 54.138 226.685 54.42 228.095 54.42C229.568 54.42 230.853 54.1223 231.949 53.527C233.046 52.9317 233.955 52.164 234.675 51.224C235.396 50.2527 235.929 49.1717 236.273 47.981C236.649 46.759 236.837 45.5213 236.837 44.268C236.837 42.9833 236.649 41.7457 236.273 40.555C235.897 39.333 235.333 38.2677 234.581 37.359C233.829 36.419 232.905 35.6827 231.808 35.15C230.743 34.586 229.505 34.304 228.095 34.304C226.623 34.304 225.338 34.6017 224.241 35.197C223.176 35.761 222.267 36.513 221.515 37.453C220.795 38.393 220.246 39.474 219.87 40.696C219.526 41.8867 219.353 43.1087 219.353 44.362ZM249.14 61V27.63H261.595C264.353 27.63 266.765 28.0687 268.833 28.946C270.901 29.8233 272.625 31.014 274.003 32.518C275.413 34.022 276.463 35.7923 277.152 37.829C277.873 39.8343 278.233 41.9807 278.233 44.268C278.233 46.806 277.842 49.109 277.058 51.177C276.275 53.2137 275.147 54.9683 273.674 56.441C272.233 57.8823 270.478 59.0103 268.41 59.825C266.374 60.6083 264.102 61 261.595 61H249.14ZM270.384 44.268C270.384 42.7953 270.181 41.4637 269.773 40.273C269.397 39.051 268.833 38.0013 268.081 37.124C267.329 36.2467 266.405 35.573 265.308 35.103C264.212 34.633 262.974 34.398 261.595 34.398H256.848V54.232H261.595C263.005 54.232 264.259 53.9813 265.355 53.48C266.452 52.9787 267.361 52.2893 268.081 51.412C268.833 50.5033 269.397 49.4537 269.773 48.263C270.181 47.041 270.384 45.7093 270.384 44.268ZM297.119 54.42C298.435 54.42 299.547 54.1537 300.456 53.621C301.365 53.057 302.101 52.3207 302.665 51.412C303.229 50.5033 303.621 49.4693 303.84 48.31C304.091 47.1193 304.216 45.913 304.216 44.691V27.63H311.924V44.691C311.924 47.0097 311.626 49.1717 311.031 51.177C310.467 53.1823 309.574 54.937 308.352 56.441C307.161 57.945 305.626 59.1357 303.746 60.013C301.897 60.859 299.688 61.282 297.119 61.282C294.456 61.282 292.184 60.8277 290.304 59.919C288.424 59.0103 286.889 57.804 285.698 56.3C284.539 54.7647 283.677 52.9943 283.113 50.989C282.58 48.9837 282.314 46.8843 282.314 44.691V27.63H290.022V44.691C290.022 45.9757 290.147 47.1977 290.398 48.357C290.649 49.5163 291.056 50.5503 291.62 51.459C292.184 52.3677 292.905 53.0883 293.782 53.621C294.691 54.1537 295.803 54.42 297.119 54.42ZM337.918 37.406C337.824 37.2807 337.495 37.0457 336.931 36.701C336.367 36.3563 335.662 35.996 334.816 35.62C333.97 35.244 333.046 34.915 332.043 34.633C331.041 34.351 330.038 34.21 329.035 34.21C326.278 34.21 324.899 35.1343 324.899 36.983C324.899 37.547 325.04 38.017 325.322 38.393C325.636 38.769 326.074 39.1137 326.638 39.427C327.234 39.709 327.97 39.9753 328.847 40.226C329.725 40.4767 330.743 40.7587 331.902 41.072C333.5 41.5107 334.942 41.9963 336.226 42.529C337.511 43.0303 338.592 43.6727 339.469 44.456C340.378 45.208 341.067 46.1323 341.537 47.229C342.039 48.3257 342.289 49.6417 342.289 51.177C342.289 53.057 341.929 54.655 341.208 55.971C340.519 57.2557 339.595 58.3053 338.435 59.12C337.276 59.9033 335.944 60.483 334.44 60.859C332.936 61.2037 331.385 61.376 329.787 61.376C328.565 61.376 327.312 61.282 326.027 61.094C324.743 60.906 323.489 60.6397 322.267 60.295C321.045 59.919 319.855 59.4803 318.695 58.979C317.567 58.4777 316.518 57.898 315.546 57.24L318.93 50.519C319.056 50.6757 319.463 50.9733 320.152 51.412C320.842 51.8507 321.688 52.2893 322.69 52.728C323.724 53.1667 324.868 53.5583 326.121 53.903C327.375 54.2477 328.644 54.42 329.928 54.42C332.654 54.42 334.017 53.5897 334.017 51.929C334.017 51.3023 333.814 50.7853 333.406 50.378C332.999 49.9707 332.435 49.6103 331.714 49.297C330.994 48.9523 330.132 48.639 329.129 48.357C328.158 48.075 327.093 47.7617 325.933 47.417C324.398 46.947 323.066 46.4457 321.938 45.913C320.81 45.349 319.87 44.7067 319.118 43.986C318.398 43.2653 317.849 42.435 317.473 41.495C317.129 40.555 316.956 39.4583 316.956 38.205C316.956 36.4503 317.285 34.8993 317.943 33.552C318.601 32.2047 319.494 31.0767 320.622 30.168C321.75 29.228 323.051 28.523 324.523 28.053C326.027 27.583 327.61 27.348 329.27 27.348C330.43 27.348 331.573 27.4577 332.701 27.677C333.829 27.8963 334.91 28.1783 335.944 28.523C336.978 28.8677 337.934 29.2593 338.811 29.698C339.72 30.1367 340.55 30.5753 341.302 31.014L337.918 37.406ZM345.778 26.69H352.593L355.037 32.8L350.29 34.116L345.778 26.69Z" fill="#EFEFEF"/>
<rect width="135" height="88" rx="15" fill="url(#paint0_radial)"/>
<circle cx="13" cy="10" r="3" fill="#DE0606"/>
<circle cx="22" cy="10" r="3" fill="#FFD912"/>
<circle cx="31" cy="10" r="3" fill="#00B112"/>
<rect width="40.3479" height="3.7789" rx="1.88945" transform="matrix(0.250685 -0.968069 -0.968534 -0.24888 66.4222 64)" fill="#979797"/>
<rect width="35.7879" height="8.62137" rx="4.31069" transform="matrix(-0.870778 -0.491676 0.494552 -0.869148 53.1633 55.7555)" fill="#4C0DFF"/>
<rect width="35.8122" height="8.6155" rx="4.30775" transform="matrix(-0.966296 0.257434 -0.259292 -0.965799 59.5176 32.3209)" fill="#4C0DFF"/>
<rect width="35.7733" height="8.62491" rx="4.31245" transform="matrix(0.807768 0.589501 -0.592465 0.805596 89.1035 27.6914)" fill="#FF1469"/>
<rect width="35.8185" height="8.61397" rx="4.30698" transform="matrix(0.989626 -0.143665 0.144754 0.989468 80.0553 50.2304)" fill="#FF1469"/>
<defs>
<radialGradient id="paint0_radial" cx="0" cy="0" r="1" gradientUnits="userSpaceOnUse" gradientTransform="translate(131 85) rotate(-148.055) scale(150.255 230.505)">
<stop stop-color="#1F009D"/>
<stop offset="1" stop-color="#0D013C"/>
</radialGradient>
</defs>
</svg>
